<mxfile host="app.diagrams.net" modified="2023-06-27T03:28:33.194Z" agent="Mozilla/5.0 (Windows NT 10.0; Win64; x64) AppleWebKit/537.36 (KHTML, like Gecko) Chrome/114.0.0.0 Safari/537.36" etag="yUy2-T1RWQ2P3O60pqOr" version="21.5.0" type="device">
  <diagram name="Página-1" id="6UlmcSQ-PGKkDH5Qd92D">
    <mxGraphModel dx="1750" dy="983" grid="1" gridSize="10" guides="1" tooltips="1" connect="1" arrows="1" fold="1" page="1" pageScale="1" pageWidth="827" pageHeight="1169" math="0" shadow="0">
      <root>
        <mxCell id="0" />
        <mxCell id="1" parent="0" />
        <mxCell id="b9nZ-zIPXtOEaoQuDpRQ-1" value="Administrador" style="shape=umlActor;verticalLabelPosition=bottom;verticalAlign=top;html=1;outlineConnect=0;" vertex="1" parent="1">
          <mxGeometry x="140" y="300" width="30" height="60" as="geometry" />
        </mxCell>
        <mxCell id="b9nZ-zIPXtOEaoQuDpRQ-2" value="Asesor" style="shape=umlActor;verticalLabelPosition=bottom;verticalAlign=top;html=1;outlineConnect=0;" vertex="1" parent="1">
          <mxGeometry x="140" y="770" width="30" height="60" as="geometry" />
        </mxCell>
        <mxCell id="b9nZ-zIPXtOEaoQuDpRQ-3" value="Actor" style="shape=umlActor;verticalLabelPosition=bottom;verticalAlign=top;html=1;outlineConnect=0;" vertex="1" parent="1">
          <mxGeometry x="40" y="510" width="30" height="60" as="geometry" />
        </mxCell>
        <mxCell id="b9nZ-zIPXtOEaoQuDpRQ-5" value="Vendedor" style="shape=umlActor;verticalLabelPosition=bottom;verticalAlign=top;html=1;outlineConnect=0;" vertex="1" parent="1">
          <mxGeometry x="140" y="680" width="30" height="60" as="geometry" />
        </mxCell>
        <mxCell id="b9nZ-zIPXtOEaoQuDpRQ-8" value="" style="rounded=0;whiteSpace=wrap;html=1;fillColor=#f5f5f5;gradientColor=#b3b3b3;strokeColor=#666666;" vertex="1" parent="1">
          <mxGeometry x="270" y="40" width="480" height="910" as="geometry" />
        </mxCell>
        <mxCell id="b9nZ-zIPXtOEaoQuDpRQ-9" value="Registrar Empresa" style="ellipse;whiteSpace=wrap;html=1;" vertex="1" parent="1">
          <mxGeometry x="390" y="90" width="110" height="60" as="geometry" />
        </mxCell>
        <mxCell id="b9nZ-zIPXtOEaoQuDpRQ-10" value="Registrar administrador" style="ellipse;whiteSpace=wrap;html=1;" vertex="1" parent="1">
          <mxGeometry x="390" y="160" width="110" height="60" as="geometry" />
        </mxCell>
        <mxCell id="b9nZ-zIPXtOEaoQuDpRQ-11" value="Registrar vendedor" style="ellipse;whiteSpace=wrap;html=1;" vertex="1" parent="1">
          <mxGeometry x="390" y="230" width="110" height="60" as="geometry" />
        </mxCell>
        <mxCell id="b9nZ-zIPXtOEaoQuDpRQ-12" value="Registrar asesor" style="ellipse;whiteSpace=wrap;html=1;" vertex="1" parent="1">
          <mxGeometry x="390" y="300" width="110" height="60" as="geometry" />
        </mxCell>
        <mxCell id="b9nZ-zIPXtOEaoQuDpRQ-13" value="Registrar pais" style="ellipse;whiteSpace=wrap;html=1;" vertex="1" parent="1">
          <mxGeometry x="390" y="370" width="110" height="60" as="geometry" />
        </mxCell>
        <mxCell id="b9nZ-zIPXtOEaoQuDpRQ-14" value="Registrar ciudad" style="ellipse;whiteSpace=wrap;html=1;" vertex="1" parent="1">
          <mxGeometry x="390" y="440" width="110" height="60" as="geometry" />
        </mxCell>
        <mxCell id="b9nZ-zIPXtOEaoQuDpRQ-15" value="Modificar registros" style="ellipse;whiteSpace=wrap;html=1;" vertex="1" parent="1">
          <mxGeometry x="385" y="500" width="120" height="60" as="geometry" />
        </mxCell>
        <mxCell id="b9nZ-zIPXtOEaoQuDpRQ-17" value="Bloquear registros" style="ellipse;whiteSpace=wrap;html=1;" vertex="1" parent="1">
          <mxGeometry x="380" y="570" width="120" height="80" as="geometry" />
        </mxCell>
        <mxCell id="b9nZ-zIPXtOEaoQuDpRQ-18" value="Consultar datos propios" style="ellipse;whiteSpace=wrap;html=1;" vertex="1" parent="1">
          <mxGeometry x="380" y="840" width="120" height="80" as="geometry" />
        </mxCell>
        <mxCell id="b9nZ-zIPXtOEaoQuDpRQ-19" value="Consultar registros" style="ellipse;whiteSpace=wrap;html=1;" vertex="1" parent="1">
          <mxGeometry x="385" y="660" width="120" height="80" as="geometry" />
        </mxCell>
        <mxCell id="b9nZ-zIPXtOEaoQuDpRQ-20" value="Registrar área de mercado" style="ellipse;whiteSpace=wrap;html=1;" vertex="1" parent="1">
          <mxGeometry x="385" y="750" width="120" height="80" as="geometry" />
        </mxCell>
        <mxCell id="b9nZ-zIPXtOEaoQuDpRQ-32" value="" style="endArrow=classic;html=1;rounded=0;exitX=0.5;exitY=0;exitDx=0;exitDy=0;exitPerimeter=0;" edge="1" parent="1" source="b9nZ-zIPXtOEaoQuDpRQ-3" target="b9nZ-zIPXtOEaoQuDpRQ-1">
          <mxGeometry width="50" height="50" relative="1" as="geometry">
            <mxPoint x="20" y="360" as="sourcePoint" />
            <mxPoint x="70" y="310" as="targetPoint" />
          </mxGeometry>
        </mxCell>
        <mxCell id="b9nZ-zIPXtOEaoQuDpRQ-34" value="" style="endArrow=classic;html=1;rounded=0;exitX=1;exitY=1;exitDx=0;exitDy=0;exitPerimeter=0;entryX=0;entryY=0.3333333333333333;entryDx=0;entryDy=0;entryPerimeter=0;" edge="1" parent="1" source="b9nZ-zIPXtOEaoQuDpRQ-3" target="b9nZ-zIPXtOEaoQuDpRQ-5">
          <mxGeometry width="50" height="50" relative="1" as="geometry">
            <mxPoint x="20" y="360" as="sourcePoint" />
            <mxPoint x="70" y="310" as="targetPoint" />
          </mxGeometry>
        </mxCell>
        <mxCell id="b9nZ-zIPXtOEaoQuDpRQ-35" value="" style="endArrow=classic;html=1;rounded=0;exitX=0;exitY=1;exitDx=0;exitDy=0;exitPerimeter=0;entryX=0;entryY=0.3333333333333333;entryDx=0;entryDy=0;entryPerimeter=0;" edge="1" parent="1" source="b9nZ-zIPXtOEaoQuDpRQ-3" target="b9nZ-zIPXtOEaoQuDpRQ-2">
          <mxGeometry width="50" height="50" relative="1" as="geometry">
            <mxPoint x="20" y="360" as="sourcePoint" />
            <mxPoint x="70" y="310" as="targetPoint" />
          </mxGeometry>
        </mxCell>
        <mxCell id="b9nZ-zIPXtOEaoQuDpRQ-37" value="" style="endArrow=none;html=1;rounded=0;entryX=0;entryY=0.5;entryDx=0;entryDy=0;exitX=1;exitY=0.3333333333333333;exitDx=0;exitDy=0;exitPerimeter=0;" edge="1" parent="1" source="b9nZ-zIPXtOEaoQuDpRQ-1" target="b9nZ-zIPXtOEaoQuDpRQ-9">
          <mxGeometry width="50" height="50" relative="1" as="geometry">
            <mxPoint x="20" y="360" as="sourcePoint" />
            <mxPoint x="70" y="310" as="targetPoint" />
          </mxGeometry>
        </mxCell>
        <mxCell id="b9nZ-zIPXtOEaoQuDpRQ-38" value="" style="endArrow=none;html=1;rounded=0;entryX=0;entryY=0.5;entryDx=0;entryDy=0;exitX=1;exitY=0.3333333333333333;exitDx=0;exitDy=0;exitPerimeter=0;" edge="1" parent="1" source="b9nZ-zIPXtOEaoQuDpRQ-1" target="b9nZ-zIPXtOEaoQuDpRQ-10">
          <mxGeometry width="50" height="50" relative="1" as="geometry">
            <mxPoint x="20" y="360" as="sourcePoint" />
            <mxPoint x="70" y="310" as="targetPoint" />
          </mxGeometry>
        </mxCell>
        <mxCell id="b9nZ-zIPXtOEaoQuDpRQ-39" value="" style="endArrow=none;html=1;rounded=0;entryX=0;entryY=0.5;entryDx=0;entryDy=0;exitX=1;exitY=0.3333333333333333;exitDx=0;exitDy=0;exitPerimeter=0;" edge="1" parent="1" source="b9nZ-zIPXtOEaoQuDpRQ-1" target="b9nZ-zIPXtOEaoQuDpRQ-11">
          <mxGeometry width="50" height="50" relative="1" as="geometry">
            <mxPoint x="20" y="360" as="sourcePoint" />
            <mxPoint x="70" y="310" as="targetPoint" />
          </mxGeometry>
        </mxCell>
        <mxCell id="b9nZ-zIPXtOEaoQuDpRQ-40" value="" style="endArrow=none;html=1;rounded=0;entryX=0;entryY=0.5;entryDx=0;entryDy=0;exitX=1;exitY=0.3333333333333333;exitDx=0;exitDy=0;exitPerimeter=0;" edge="1" parent="1" source="b9nZ-zIPXtOEaoQuDpRQ-1" target="b9nZ-zIPXtOEaoQuDpRQ-12">
          <mxGeometry width="50" height="50" relative="1" as="geometry">
            <mxPoint x="20" y="360" as="sourcePoint" />
            <mxPoint x="70" y="310" as="targetPoint" />
          </mxGeometry>
        </mxCell>
        <mxCell id="b9nZ-zIPXtOEaoQuDpRQ-41" value="" style="endArrow=none;html=1;rounded=0;entryX=0;entryY=0.5;entryDx=0;entryDy=0;exitX=1;exitY=0.3333333333333333;exitDx=0;exitDy=0;exitPerimeter=0;" edge="1" parent="1" source="b9nZ-zIPXtOEaoQuDpRQ-1" target="b9nZ-zIPXtOEaoQuDpRQ-13">
          <mxGeometry width="50" height="50" relative="1" as="geometry">
            <mxPoint x="20" y="360" as="sourcePoint" />
            <mxPoint x="70" y="310" as="targetPoint" />
          </mxGeometry>
        </mxCell>
        <mxCell id="b9nZ-zIPXtOEaoQuDpRQ-42" value="" style="endArrow=none;html=1;rounded=0;entryX=0;entryY=0.5;entryDx=0;entryDy=0;exitX=1;exitY=0.3333333333333333;exitDx=0;exitDy=0;exitPerimeter=0;" edge="1" parent="1" source="b9nZ-zIPXtOEaoQuDpRQ-1" target="b9nZ-zIPXtOEaoQuDpRQ-14">
          <mxGeometry width="50" height="50" relative="1" as="geometry">
            <mxPoint x="20" y="360" as="sourcePoint" />
            <mxPoint x="70" y="310" as="targetPoint" />
          </mxGeometry>
        </mxCell>
        <mxCell id="b9nZ-zIPXtOEaoQuDpRQ-43" value="" style="endArrow=none;html=1;rounded=0;entryX=0;entryY=0.5;entryDx=0;entryDy=0;exitX=1;exitY=0.3333333333333333;exitDx=0;exitDy=0;exitPerimeter=0;" edge="1" parent="1" source="b9nZ-zIPXtOEaoQuDpRQ-1" target="b9nZ-zIPXtOEaoQuDpRQ-15">
          <mxGeometry width="50" height="50" relative="1" as="geometry">
            <mxPoint x="20" y="360" as="sourcePoint" />
            <mxPoint x="70" y="310" as="targetPoint" />
          </mxGeometry>
        </mxCell>
        <mxCell id="b9nZ-zIPXtOEaoQuDpRQ-44" value="" style="endArrow=none;html=1;rounded=0;entryX=0;entryY=0.5;entryDx=0;entryDy=0;exitX=1;exitY=0.3333333333333333;exitDx=0;exitDy=0;exitPerimeter=0;" edge="1" parent="1" source="b9nZ-zIPXtOEaoQuDpRQ-1" target="b9nZ-zIPXtOEaoQuDpRQ-17">
          <mxGeometry width="50" height="50" relative="1" as="geometry">
            <mxPoint x="20" y="520" as="sourcePoint" />
            <mxPoint x="70" y="470" as="targetPoint" />
          </mxGeometry>
        </mxCell>
        <mxCell id="b9nZ-zIPXtOEaoQuDpRQ-45" value="" style="endArrow=none;html=1;rounded=0;exitX=1;exitY=0.3333333333333333;exitDx=0;exitDy=0;exitPerimeter=0;" edge="1" parent="1" source="b9nZ-zIPXtOEaoQuDpRQ-1" target="b9nZ-zIPXtOEaoQuDpRQ-19">
          <mxGeometry width="50" height="50" relative="1" as="geometry">
            <mxPoint x="20" y="520" as="sourcePoint" />
            <mxPoint x="70" y="470" as="targetPoint" />
          </mxGeometry>
        </mxCell>
        <mxCell id="b9nZ-zIPXtOEaoQuDpRQ-48" value="" style="endArrow=none;html=1;rounded=0;entryX=0;entryY=0.5;entryDx=0;entryDy=0;exitX=1;exitY=0.3333333333333333;exitDx=0;exitDy=0;exitPerimeter=0;" edge="1" parent="1" source="b9nZ-zIPXtOEaoQuDpRQ-1" target="b9nZ-zIPXtOEaoQuDpRQ-20">
          <mxGeometry width="50" height="50" relative="1" as="geometry">
            <mxPoint x="20" y="520" as="sourcePoint" />
            <mxPoint x="70" y="470" as="targetPoint" />
          </mxGeometry>
        </mxCell>
        <mxCell id="b9nZ-zIPXtOEaoQuDpRQ-49" value="" style="endArrow=none;html=1;rounded=0;entryX=0;entryY=0.5;entryDx=0;entryDy=0;" edge="1" parent="1" target="b9nZ-zIPXtOEaoQuDpRQ-18">
          <mxGeometry width="50" height="50" relative="1" as="geometry">
            <mxPoint x="180" y="330" as="sourcePoint" />
            <mxPoint x="70" y="470" as="targetPoint" />
          </mxGeometry>
        </mxCell>
        <mxCell id="b9nZ-zIPXtOEaoQuDpRQ-50" value="" style="endArrow=none;html=1;rounded=0;entryX=-0.028;entryY=0.371;entryDx=0;entryDy=0;entryPerimeter=0;exitX=1;exitY=0.3333333333333333;exitDx=0;exitDy=0;exitPerimeter=0;" edge="1" parent="1" source="b9nZ-zIPXtOEaoQuDpRQ-5" target="b9nZ-zIPXtOEaoQuDpRQ-18">
          <mxGeometry width="50" height="50" relative="1" as="geometry">
            <mxPoint x="20" y="520" as="sourcePoint" />
            <mxPoint x="70" y="470" as="targetPoint" />
          </mxGeometry>
        </mxCell>
        <mxCell id="b9nZ-zIPXtOEaoQuDpRQ-51" value="" style="endArrow=none;html=1;rounded=0;entryX=0;entryY=0.5;entryDx=0;entryDy=0;exitX=1;exitY=0.3333333333333333;exitDx=0;exitDy=0;exitPerimeter=0;" edge="1" parent="1" source="b9nZ-zIPXtOEaoQuDpRQ-2" target="b9nZ-zIPXtOEaoQuDpRQ-18">
          <mxGeometry width="50" height="50" relative="1" as="geometry">
            <mxPoint x="20" y="520" as="sourcePoint" />
            <mxPoint x="70" y="470" as="targetPoint" />
          </mxGeometry>
        </mxCell>
        <mxCell id="b9nZ-zIPXtOEaoQuDpRQ-52" value="Captar Vendedor" style="ellipse;whiteSpace=wrap;html=1;" vertex="1" parent="1">
          <mxGeometry x="560" y="230" width="120" height="60" as="geometry" />
        </mxCell>
        <mxCell id="b9nZ-zIPXtOEaoQuDpRQ-55" value="" style="endArrow=none;dashed=1;html=1;dashPattern=1 3;strokeWidth=2;rounded=0;entryX=0;entryY=0.5;entryDx=0;entryDy=0;exitX=1;exitY=0.5;exitDx=0;exitDy=0;" edge="1" parent="1" source="b9nZ-zIPXtOEaoQuDpRQ-11" target="b9nZ-zIPXtOEaoQuDpRQ-52">
          <mxGeometry width="50" height="50" relative="1" as="geometry">
            <mxPoint x="20" y="520" as="sourcePoint" />
            <mxPoint x="70" y="470" as="targetPoint" />
          </mxGeometry>
        </mxCell>
        <mxCell id="b9nZ-zIPXtOEaoQuDpRQ-56" value="Gestión de holding de empresas" style="text;html=1;strokeColor=none;fillColor=none;align=center;verticalAlign=middle;whiteSpace=wrap;rounded=0;shadow=0;glass=0;fontStyle=1" vertex="1" parent="1">
          <mxGeometry x="414" y="50" width="210" height="30" as="geometry" />
        </mxCell>
      </root>
    </mxGraphModel>
  </diagram>
</mxfile>
